<svg xmlns="http://www.w3.org/2000/svg" viewBox="0 0 115.6 30">
  <g>
    <path style="fill:#B6C5E7;" d="M56.8,11.9L54.5,21h-3L47.7,7.7h3.2l2.3,9.6l2.5-9.6H58l2.5,9.6l2.3-9.6H66L62.2,21h-3L56.8,11.9z" />
    <path style="fill:#B6C5E7;" d="M65.9,16.2c0-2.7,1.9-5.1,5.1-5.1c3.2,0,5.1,2.3,5.1,5.1c0,2.8-1.9,5.1-5.1,5.1
		C67.8,21.3,65.9,19,65.9,16.2z M73.4,16.2c0-1.5-0.9-2.8-2.5-2.8s-2.5,1.3-2.5,2.8c0,1.5,0.9,2.8,2.5,2.8S73.4,17.7,73.4,16.2z"/>
    <path style="fill:#B6C5E7;" d="M78,7.7h2.5V21H78V7.7z"/>
    <path style="fill:#B6C5E7;" d="M83.6,13.6H82v-2.2h1.6v-0.5c0-2.1,1.4-3.4,3.3-3.4c0.7,0,1.4,0.2,1.8,0.4l-0.5,1.8
		c-0.2-0.1-0.5-0.2-0.8-0.2c-0.7,0-1.2,0.5-1.2,1.4v0.5h2v2.2h-2V21h-2.6V13.6z"/>
    <path style="fill:#B6C5E7;" d="M89.6,7.7h6.2c2.9,0,4.5,2,4.5,4.3c0,2.3-1.6,4.3-4.5,4.3h-3.4V21h-2.8V7.7z M95.5,10.1h-3v3.7h3
		c1.1,0,2-0.7,2-1.8C97.4,10.9,96.6,10.1,95.5,10.1z"/>
    <path style="fill:#B6C5E7;" d="M107.4,20c-0.7,0.8-1.8,1.2-3.1,1.2c-1.5,0-3.4-1-3.4-3.2c0-2.3,1.8-3.1,3.4-3.1
		c1.3,0,2.4,0.4,3.1,1.2v-1.3c0-1-0.8-1.6-2.1-1.6c-1,0-2,0.4-2.8,1.1l-1-1.7c1.2-1,2.7-1.5,4.2-1.5c2.2,0,4.2,0.9,4.2,3.7V21h-2.5
		V20z M107.4,17.5c-0.4-0.6-1.2-0.8-2-0.8c-1,0-1.8,0.5-1.8,1.5c0,0.9,0.8,1.4,1.8,1.4c0.8,0,1.6-0.3,2-0.8V17.5z"/>
    <path style="fill:#B6C5E7;" d="M112.5,7.7h2.5V21h-2.5V7.7z"/>
  </g>
  <path style="fill:#797781;" d="M19.1,8.7c0,0-2.5-7-0.8-8c1.7-1,6.5,4.7,6.5,4.7"/>
  <path style="fill:#58575D;" d="M29.7,5.3c0,0,4.8-5.7,6.5-4.7c1.7,1-0.8,8-0.8,8"/>
  <path style="fill:#88888F;" d="M38.6,16.2c0-6.2-5-11.3-11.3-11.3C21.1,4.9,16,10,16,16.2"/>
  <path style="fill:#797781;" d="M27.3,4.9v11.3h11.3C38.6,10,33.5,4.9,27.3,4.9z"/>
  <path style="fill:#F8F8F9;" d="M40.6,20.8c-6,0-6,8.6-13.3,8.6s-7.3-8.6-13.3-8.6c0-3.3,2.7-6,6-6c0-2.6,2.1-4.6,4.6-4.6
	c1,0,1.9,0.3,2.7,0.8c0.8-0.5,1.7-0.8,2.7-0.8c2.6,0,4.6,2.1,4.6,4.6C37.9,14.9,40.6,17.5,40.6,20.8z"/>
  <path style="fill:#EDEDED;" d="M34.6,14.9c0-2.6-2.1-4.6-4.6-4.6c-1,0-1.9,0.3-2.7,0.8v18.4c7.3,0,7.3-8.6,13.3-8.6
	C40.6,17.5,37.9,14.9,34.6,14.9z"/>
  <path style="fill:#58575D;" d="M25,15.8L25,15.8c0.7,0,1.3-0.6,1.3-1.3c0-0.7-0.6-1.3-1.3-1.3c-0.7,0-1.3,0.6-1.3,1.3
	C23.7,15.3,24.3,15.8,25,15.8z"/>
  <path style="fill:#454449;" d="M29.6,15.8L29.6,15.8c0.7,0,1.3-0.6,1.3-1.3c0-0.7-0.6-1.3-1.3-1.3c-0.7,0-1.3,0.6-1.3,1.3
	C28.3,15.3,28.9,15.8,29.6,15.8z"/>
  <path style="fill:#EBAFD1;" d="M29.3,22.8v1.3c0,1.1-0.9,2-2,2s-2-0.9-2-2v-1.3H29.3z"/>
  <path style="fill:#E592BF;" d="M27.3,22.8v3.3c1.1,0,2-0.9,2-2v-1.3H27.3z"/>
  <path style="fill:#D8D8DA;" d="M31.6,20.8c0,0.9-0.7,1.7-1.7,1.7c-0.9,0-1.7-0.7-1.7-1.7v-2h-2v2c0,0.9-0.7,1.7-1.7,1.7
	S23,21.7,23,20.8h-2c0,2,1.6,3.6,3.6,3.6c1,0,2-0.4,2.7-1.1c0.7,0.7,1.6,1.1,2.7,1.1c2,0,3.6-1.6,3.6-3.6H31.6z"/>
  <path style="fill:#C6C5CA;" d="M31.6,20.8c0,0.9-0.7,1.7-1.7,1.7c-0.9,0-1.7-0.7-1.7-1.7v-2h-1v4.5c0.7,0.7,1.6,1.1,2.7,1.1
	c2,0,3.6-1.6,3.6-3.6H31.6z"/>
  <path style="fill:#58575D;" d="M29.4,17.8c-0.3,1.1-1.3,2.2-2.1,2.2c-0.8,0-1.8-1.2-2.1-2.2c-0.2-0.5,0.3-1,0.9-1c0.8,0,1.6,0,2.4,0
	C29.2,16.9,29.6,17.3,29.4,17.8z"/>
  <path style="fill:#454449;" d="M28.5,16.8c-0.4,0-0.8,0-1.2,0v3.2c0.8,0,1.8-1.2,2.1-2.2C29.6,17.3,29.2,16.9,28.5,16.8z"/>
</svg>
